<svg width="38" height="40" viewBox="0 0 38 40" fill="none" xmlns="http://www.w3.org/2000/svg">
<path d="M10.9603 26.2585H33.1397C35.5894 26.2585 37.5772 24.2624 37.5772 21.821V12.4758C37.5772 11.9314 37.1318 11.486 36.5874 11.486C36.043 11.486 35.5976 11.9314 35.5976 12.4758V21.8127C35.5976 23.1737 34.4924 24.2707 33.1397 24.2707H10.9603C9.59935 24.2707 8.50234 23.1654 8.50234 21.8127V16.3112V10.158V9.35796V3.56773C8.50234 3.53474 8.50234 3.4935 8.49409 3.4605C8.49409 3.45225 8.49409 3.44401 8.49409 3.43576C8.49409 3.41101 8.48584 3.38627 8.48584 3.36977C8.48584 3.35328 8.47759 3.32853 8.46935 3.31203C8.46935 3.30379 8.4611 3.28729 8.4611 3.27904C8.45285 3.2543 8.4446 3.2378 8.43635 3.21306C8.43635 3.20481 8.42811 3.19656 8.42811 3.18831C8.41986 3.17182 8.41161 3.14707 8.40336 3.13057C8.39511 3.12233 8.39511 3.10583 8.38686 3.09758C8.37862 3.08109 8.37037 3.06459 8.36212 3.04809C8.35387 3.0316 8.34562 3.02335 8.33738 3.00685C8.32913 2.9986 8.32088 2.98211 8.31263 2.97386C8.30438 2.95736 8.28789 2.94087 8.27964 2.93262C8.27139 2.92437 8.26314 2.91612 8.25489 2.90787C8.2384 2.89138 8.23015 2.87488 8.21365 2.85838C8.2054 2.85014 8.19716 2.84189 8.18891 2.84189C8.17241 2.82539 8.15592 2.8089 8.13942 2.80065C8.13117 2.7924 8.12292 2.78415 8.11467 2.7759C8.09818 2.76765 8.08168 2.75116 8.06519 2.74291C8.04869 2.72641 8.02394 2.71817 8.00745 2.70167C7.9992 2.70167 7.99095 2.69342 7.99095 2.68517C7.95796 2.66868 7.92497 2.65218 7.89197 2.63568L1.79656 0.0787449C1.29342 -0.135708 0.716049 0.103489 0.501596 0.606629C0.287144 1.10152 0.526341 1.68714 1.02948 1.90159L6.51453 4.21934V9.35796V10.158V16.3112V21.8127V28.7659C6.51453 31.0919 8.30438 32.9973 10.5809 33.187C10.119 33.8798 9.84679 34.7129 9.84679 35.6119C9.84679 38.0287 11.8181 40 14.2348 40C16.6516 40 18.6229 38.0287 18.6229 35.6119C18.6229 34.7211 18.3589 33.8963 17.9053 33.2035H28.4052C27.9516 33.8963 27.6876 34.7211 27.6876 35.6119C27.6876 38.0287 29.6589 40 32.0757 40C34.4924 40 36.4637 38.0287 36.4637 35.6119C36.4637 33.1952 34.4924 31.2239 32.0757 31.2239H10.9603C9.59935 31.2239 8.50234 30.1186 8.50234 28.7659V25.5079C9.20344 25.9781 10.053 26.2585 10.9603 26.2585ZM16.6433 35.6119C16.6433 36.9399 15.5628 38.0204 14.2348 38.0204C12.9069 38.0204 11.8264 36.9399 11.8264 35.6119C11.8264 34.284 12.9069 33.2035 14.2348 33.2035C15.5628 33.2035 16.6433 34.284 16.6433 35.6119ZM34.4759 35.6119C34.4759 36.9399 33.3954 38.0204 32.0674 38.0204C30.7395 38.0204 29.6589 36.9399 29.6589 35.6119C29.6589 34.284 30.7395 33.2035 32.0674 33.2035C33.3954 33.2035 34.4759 34.284 34.4759 35.6119Z" fill="white"/>
</svg>
