<svg width="40" height="36" viewBox="0 0 40 36" fill="none" xmlns="http://www.w3.org/2000/svg">
<path d="M36.7691 3.68275C34.6746 1.5882 31.9016 0.443409 28.9421 0.443409C25.9826 0.443409 23.2012 1.59668 21.1066 3.69123L20.0127 4.78514L18.9019 3.67427C16.8073 1.57972 14.0174 0.417969 11.0579 0.417969C8.10688 0.417969 5.32545 1.57124 3.23939 3.65731C1.14484 5.75186 -0.00843351 8.53328 4.64338e-05 11.4928C4.64338e-05 14.4523 1.1618 17.2252 3.25635 19.3198L19.1817 35.2451C19.4022 35.4656 19.699 35.5843 19.9873 35.5843C20.2756 35.5843 20.5724 35.4741 20.7929 35.2536L36.7521 19.3537C38.8467 17.2591 40 14.4777 40 11.5182C40.0084 8.55872 38.8637 5.7773 36.7691 3.68275ZM35.141 17.734L19.9873 32.8283L4.86754 17.7086C3.20547 16.0465 2.28963 13.8417 2.28963 11.4928C2.28963 9.14384 3.19699 6.93905 4.85906 5.28546C6.51265 3.63187 8.71743 2.71603 11.0579 2.71603C13.4068 2.71603 15.6201 3.63187 17.2822 5.29394L19.1986 7.21041C19.6481 7.65984 20.3689 7.65984 20.8183 7.21041L22.7178 5.3109C24.3799 3.64883 26.5932 2.73299 28.9336 2.73299C31.2741 2.73299 33.4789 3.64883 35.141 5.30242C36.803 6.96449 37.7104 9.16928 37.7104 11.5182C37.7189 13.8672 36.803 16.072 35.141 17.734Z" fill="white"/>
</svg>
