<svg width="152" height="56" viewBox="0 0 152 56" fill="none" xmlns="http://www.w3.org/2000/svg">
<g clip-path="url(#clip0_259_8833)">
<path fill-rule="evenodd" clip-rule="evenodd" d="M34.9156 0H52.435L59.4675 17.5154L66.5 0H83.8961L88.0909 33.304L85.2532 47.1189H89.8182L90.9285 55.8767H73.4091L69.9545 34.9075L68.2272 43.7885H59.4675H50.7078L48.9805 34.9075L45.526 55.8767H28.0065C28.6234 51.3128 29.2402 46.8722 29.7337 42.6784C34.0519 39.1013 36.7662 33.7974 36.7662 27.8767C36.7662 23.5595 35.2857 19.489 32.9415 16.2819C33.435 11.1013 34.1753 5.79736 34.9156 0Z" fill="#E10811"/>
<path fill-rule="evenodd" clip-rule="evenodd" d="M118.935 10.4844V45.3919L127.695 45.5152V31.4535L135.468 45.5152H144.227V10.4844H135.468V27.9998L127.695 10.4844H118.935Z" fill="black"/>
<path fill-rule="evenodd" clip-rule="evenodd" d="M94.3832 10.4844L87.3507 45.3919H96.2338L97.3442 40.0879H105.734L106.721 45.3919H115.481L108.448 10.4844H94.3832ZM101.416 19.2421L103.883 31.4535H98.9481L101.416 19.2421Z" fill="black"/>
<path fill-rule="evenodd" clip-rule="evenodd" d="M148.422 12.3349H147.929V13.5684H148.545C148.916 13.5684 149.039 13.5684 149.286 13.445C149.409 13.3217 149.533 13.1983 149.533 12.9516C149.533 12.7049 149.409 12.5816 149.286 12.4582C148.916 12.3349 148.669 12.3349 148.422 12.3349ZM148.545 11.9648C149.039 11.9648 149.409 12.0882 149.656 12.2115C149.903 12.3349 150.026 12.5816 150.026 12.9516C150.026 13.1983 149.903 13.445 149.779 13.5684C149.656 13.6917 149.409 13.8151 149.162 13.9384L149.903 15.5419H149.162L148.422 14.0618H147.805V15.5419H147.188V11.9648H148.545Z" fill="black"/>
<path d="M148.545 17.1458C146.695 17.1458 145.091 15.6656 145.091 13.692C145.091 11.8418 146.571 10.2383 148.545 10.2383C150.396 10.2383 152 11.7185 152 13.692C152 15.5422 150.396 17.1458 148.545 17.1458ZM148.545 10.7317C146.942 10.7317 145.584 12.0885 145.584 13.692C145.584 15.2955 146.942 16.6524 148.545 16.6524C150.149 16.6524 151.507 15.2955 151.507 13.692C151.507 12.0885 150.149 10.7317 148.545 10.7317Z" fill="black"/>
<path fill-rule="evenodd" clip-rule="evenodd" d="M17.5195 10.4844C27.1429 10.4844 35.039 18.2553 35.039 27.9998C35.039 37.7443 27.1429 45.5152 17.5195 45.5152C7.77273 45.5152 0 37.6209 0 27.9998C0 18.3786 7.77273 10.4844 17.5195 10.4844ZM17.8896 19.2421C13.0779 18.9954 9.00649 22.8192 8.75974 27.6297C8.51299 32.4403 12.3377 36.5108 17.1493 36.7575C21.961 37.0042 26.0325 33.1804 26.2792 28.3698C26.4026 23.4359 22.7013 19.3654 17.8896 19.2421Z" fill="black"/>
</g>
<defs>
<clipPath id="clip0_259_8833">
<rect width="152" height="56" fill="white"/>
</clipPath>
</defs>
</svg>
